<?xml version="1.0" standalone="no"?>
<!DOCTYPE svg PUBLIC "-//W3C//DTD SVG 1.1//EN" "http://www.w3.org/Graphics/SVG/1.1/DTD/svg11.dtd" >
<!--
2013-9-30: Created.
-->
<svg>
<metadata>
Created by iconfont
</metadata>
<defs>

<font id="iconfont" horiz-adv-x="1024" >
  <font-face
    font-family="iconfont"
    font-weight="500"
    font-stretch="normal"
    units-per-em="1024"
    ascent="896"
    descent="-128"
  />
    <missing-glyph />
    
    <glyph glyph-name="x" unicode="x" horiz-adv-x="1001"
d="M281 543q-27 -1 -53 -1h-83q-18 0 -36.5 -6t-32.5 -18.5t-23 -32t-9 -45.5v-76h912v41q0 16 -0.5 30t-0.5 18q0 13 -5 29t-17 29.5t-31.5 22.5t-49.5 9h-133v-97h-438v97zM955 310v-52q0 -23 0.5 -52t0.5 -58t-10.5 -47.5t-26 -30t-33 -16t-31.5 -4.5q-14 -1 -29.5 -0.5
t-29.5 0.5h-32l-45 128h-439l-44 -128h-29h-34q-20 0 -45 1q-25 0 -41 9.5t-25.5 23t-13.5 29.5t-4 30v167h911zM163 247q-12 0 -21 -8.5t-9 -21.5t9 -21.5t21 -8.5q13 0 22 8.5t9 21.5t-9 21.5t-22 8.5zM316 123q-8 -26 -14 -48q-5 -19 -10.5 -37t-7.5 -25t-3 -15t1 -14.5
t9.5 -10.5t21.5 -4h37h67h81h80h64h36q23 0 34 12t2 38q-5 13 -9.5 30.5t-9.5 34.5q-5 19 -11 39h-368zM336 498v228q0 11 2.5 23t10 21.5t20.5 15.5t34 6h188q31 0 51.5 -14.5t20.5 -52.5v-227h-327z" />
    

    
    <glyph glyph-name="chuangyishenghuo" unicode="&#58932;" d="M142.81728 0.98176c108.509867-12.694187 198.280533 98.9184 285.27616 146.08384 10.144427 5.505707 42.19904 24.244907 51.75296 8.690347 8.854187-14.40768 4.037973-39.468373 3.723947-55.709013-0.669013-39.81312-2.563413-79.660373-4.461227-119.43936-2.205013-47.458987-4.672853-123.11552-7.727787-170.492587l87.74656 0c-3.037867 47.377067-5.522773 123.0336-7.727787 170.492587-1.877333 39.778987-3.792213 79.62624-4.44416 119.43936-0.293547 16.237227-5.13024 41.314987 3.70688 55.709013 9.5744 15.55456 41.608533-3.201707 51.739307-8.690347 87.00928-47.16544 176.800427-158.778027 285.289813-146.08384 59.32032 6.959787 95.440213 60.47744 113.493333 112.708267 35.403093 102.64576 36.563627 292.38272-70.642347 357.010773-163.1744 98.36544-217.378133-212.821333-356.096-224.795307-26.3168-2.269867-22.493867 7.922347-14.998187 32.98304 12.67712 42.246827 36.90496 82.78016 63.552853 117.73952 57.521493 75.441493 134.075733 173.21984 117.674667 275.063467-14.994773 93.31712-126.266027 120.15616-225.416533 117.90336-99.16416 2.256213-210.45248-24.58624-225.416533-117.90336-16.401067-101.843627 60.153173-199.621973 117.6576-275.063467 26.630827-34.962773 50.87232-75.492693 63.552853-117.73952 7.51616-25.060693 11.322027-35.25632-14.98112-32.98304C317.35808 257.879467 263.13728 569.06624 99.997013 470.7008c-107.219627-64.628053-106.07616-254.365013-70.656-357.010773C47.373653 61.462613 83.510613 7.941547 142.81728 0.98176z"  horiz-adv-x="1024" />

    
    <glyph glyph-name="jinlingyingcaiwangtubiao54" unicode="&#59093;" d="M512.819 748.877c-254.080 0-460.774-206.72-460.774-460.826 0-254.080 206.694-460.774 460.774-460.774s460.774 206.694 460.774 460.774c0 254.080-206.694 460.826-460.774 460.826zM792.806 268.877h-279.987c-10.598 0-19.2 8.602-19.2 19.2 0 1.306 0.486 2.458 0.742 3.686-0.256 1.229-0.742 2.381-0.742 3.686l-0 272.614c0 10.598 8.602 19.2 19.2 19.2s19.2-8.602 19.2-19.2v-260.813h260.787c10.598 0 19.2-8.602 19.2-19.2s-8.602-19.174-19.2-19.174z"  horiz-adv-x="1024" />

    
    <glyph glyph-name="fangdajing" unicode="&#58931;" d="M210.916 589.155c-75.447-75.459-103.883-180.102-85.42-277.529 18.464 83.844 61.861 165.775 129.561 233.487 67.699 67.711 149.618 111.116 233.447 129.582-97.517 18.361-202.142-10.081-277.588-85.539v0zM987.015-20.558l-121.075 121.094c-25.146 25.152-59.209 36.508-92.316 33.962 113.861 164.711 97.412 392.358-49.236 539.026-165.105 165.138-432.829 165.138-597.934 0-165.11-165.134-165.11-432.899 0-598.032 146.64-146.671 374.143-163.017 538.935-49.137-2.545-33.11 8.809-67.179 33.957-92.33l121.075-121.095c45.838-45.743 120.751-45.743 166.489 0v0c45.94 45.742 45.94 120.668 0.105 166.513v0zM675.257 124.739c-137.945-137.969-361.521-137.969-499.46 0-137.945 137.963-137.945 361.574 0 499.542 137.94 137.968 361.517 137.968 499.46 0 137.945-137.862 137.945-361.58 0-499.542v0zM675.257 124.739z"  horiz-adv-x="1024" />

    
    <glyph glyph-name="saoyisao" unicode="&#58994;" d="M112 492.112c8.832 0 16 7.168 16 16l0 176 176 0c8.832 0 16 7.168 16 16s-7.168 16-16 16L112 716.112c-8.832 0-16-7.168-16-16l0-192C96 499.28 103.168 492.112 112 492.112zM304-84.112 128-84.112l0 176c0 8.848-7.168 16-16 16s-16-7.152-16-16l0-192c0-8.848 7.168-16 16-16l192 0c8.832 0 16 7.152 16 16S312.832-84.112 304-84.112zM912 716.112c-0.544 0-1.008-0.256-1.536-0.304-0.528 0.048-0.992 0.304-1.536 0.304l-192 0c-8.848 0-16-7.168-16-16s7.152-16 16-16L896 684.112l0-176c0-8.832 7.152-16 16-16s16 7.168 16 16l0 192C928 708.944 920.848 716.112 912 716.112zM912 108.112c-8.848 0-16-7.152-16-16l0-176L716.944-83.888c-8.848 0-16-7.152-16-16s7.152-16 16-16l192 0c0.544 0 1.008 0.256 1.536 0.304 0.528-0.048 0.992-0.304 1.536-0.304 8.848 0 16 7.152 16 16l0 192C928 100.96 920.848 108.112 912 108.112zM912 316.112 112 316.112c-8.832 0-16-7.168-16-16 0-8.848 7.168-16 16-16l800 0c8.848 0 16 7.152 16 16C928 308.944 920.848 316.112 912 316.112z"  horiz-adv-x="1024" />

    
    <glyph glyph-name="huojian1" unicode="&#58883;" d="M736.048 194.944c58.032-160.528-46.816-297.664-135.184-392.48-20.048-21.552-26.336-19.008-28.912 7.616-8.56 107.84-18.032 181.888-18.032 181.888s-36.336-27.824-74.704-6.848c-13.008-23.808-43.888-33.152-66.544-20.112-6.736-6.112-15.648-13.84-24.896-21.68-37.264-37.024-47.328-31.456-36.96 21.584 2.208 11.856 4.416 23.312 6.336 32.176-22.592 13.056-28.096 47.904-13.968 71.072-37.296 22.72-33.2 64.656-33.2 64.656s-68.768-28.864-166.368-75.424c-24.336-11.056-29.648-6.928-21.008 21.216 38 123.904 104.336 283.264 272.224 313.376C574.24 745.28 864.608 812 864.608 812S952.336 527.008 736.048 194.944zM535.904 377.792c-92.096-159.52-105.664-324.112-105.664-324.112s135.728 94.032 227.824 253.552c92.112 159.552 105.664 324.144 105.664 324.144S627.968 537.328 535.904 377.792z"  horiz-adv-x="1024" />

    
    <glyph glyph-name="gouwuche" unicode="&#58909;" d="M932.390559 592.457706l-46.712905-140.152017c0-51.604308-41.835827-93.435019-93.439112-93.435019L341.902974 358.87067l5.503341-46.716998 584.984245 0-46.712905-93.435019L294.803259 218.718653l-30.057573-3.541663L209.30091 685.891701l-71.103408 0c-25.801642 0-46.712905 20.920472-46.712905 46.716998 0 25.801642 20.910239 46.716998 46.712905 46.716998l93.439112 0c3.947915 0 7.479345-1.327228 11.146874-2.251274l49.169863 5.792936 11.880585-100.834546c5.807263 2.261507 12.459776 3.858888 21.23258 3.858888l560.612161 0C937.27787 685.891701 932.390559 644.060991 932.390559 592.457706zM465.222627 172.001655c51.599192 0 93.429903-41.830711 93.429903-93.435019s-41.830711-93.435019-93.429903-93.435019c-51.608402 0-93.439112 41.830711-93.439112 93.435019S413.614226 172.001655 465.222627 172.001655zM745.521544 172.001655c51.608402 0 93.439112-41.830711 93.439112-93.435019s-41.830711-93.435019-93.439112-93.435019c-51.599192 0-93.429903 41.830711-93.429903 93.435019S693.922353 172.001655 745.521544 172.001655z"  horiz-adv-x="1024" />

    
    <glyph glyph-name="nansheng" unicode="&#58952;" d="M389.551692 271.898853m-31.518854 0a30.801 30.801 0 1 0 63.037708 0 30.801 30.801 0 1 0-63.037708 0ZM652.540362 271.898853m-31.518854 0a30.801 30.801 0 1 0 63.037708 0 30.801 30.801 0 1 0-63.037708 0ZM902.843104 490.61725c0 0-9.282411 79.593779-51.964512 125.764332 0 0 30.007431 16.164145-2.302439 43.842531 0 0-28.825512 6.92369-34.614355 4.602831 0 0-14.973016 50.785663-44.978401 63.476707 0 0-25.40153 6.160303-31.188326-18.464537 0 0-67.462484 34.32169-116.247584 42.98807 0 0-124.576273 23.941272-158.028153 81.907475 0 0-7.225565 14.702863-30.847565 6.064113 0 0-22.539342-17.877159-15.629979-89.412402 0 0 1.925862-14.629185-94.235245 46.910403 0 0-23.828708 6.15007-30.737048-12.299117 0 0-12.277628-43.839461 3.069919-76.157517 0 0-55.372122-9.988492-79.258135-33.845853 0 0-26.881231-34.621519 18.459421-40.003086 0 0-67.6344-38.458917-79.220273-146.908908 0 0-1.352811-76.092026 23.042809-160.503531-5.201465-13.784958-7.291057-28.891004-5.623068-44.325531 4.76349-44.065612 38.811957-79.014588 82.892919-85.201497 13.906731-42.314735 37.644365-81.08269 70.054519-113.492844 54.438866-54.43989 126.81936-84.420715 203.807802-84.420715s149.368936 29.980825 203.807802 84.420715c33.103956 33.103956 57.142441 72.847122 70.917166 116.219955 42.515303 5.446036 76.43688 37.905308 83.272565 80.361259 3.315512 20.59813-0.158612 40.962947-9.029654 58.588373C893.430734 385.276063 906.577149 440.302307 902.843104 490.61725zM249.33009 213.718779c-34.119075 8.148587-59.747779 36.671201-63.562665 71.965032-0.681522 6.302543-0.624217 12.541641 0.088004 18.627243 6.145977-17.761526 13.511735-35.603893 22.354124-52.91721 0 0 18.251689-18.251689 37.06722-11.517311 0.793062-4.607948 1.697665-9.187243 2.710738-13.734816L249.33009 213.718779zM529.296433 14.441153c-130.877793 0-240.674455 91.932806-268.243347 214.608799l-2.24411 20.760836c2.158153 2.558265 4.264117 5.611811 6.28617 9.259898 0 0 2.37714 85.404112 53.145407 136.171356 0 0 44.60694-12.345166 101.533464 19.235087 0 0-23.86657-29.237905-45.412282-44.620243 0 0-12.31856-30.005384 15.386432-33.093722 0 0 85.378529-16.156982 170.757059 40.003086 0 0-4.604878-28.464285 36.18513-19.984147 0 0 33.020044 0.757247 86.126566 41.538045 0 0 11.550057-19.230993 54.978149 4.596691 0 0-1.12359-38.054711 33.489742-96.899934 0 0 15.009855-24.477484 15.009855-67.613934 0 0 3.941775-3.251044 9.851369-6.099928l-3.554966-22.082948C758.519068 97.087455 653.386636 14.441153 529.296433 14.441153zM874.159832 284.255275c-5.579065-34.649148-32.109302-61.567217-66.044182-68.327178 1.058099 4.046153 2.030239 8.120958 2.913353 12.220323 10.411117-0.582261 21.852704 4.29277 29.481452 23.61586 0 0 15.436574 28.598338 31.023574 70.148663C875.205651 310.023148 876.243283 297.192935 874.159832 284.255275z"  horiz-adv-x="1024" />

    
    <glyph glyph-name="huati" unicode="&#58886;" d="M482.13 433.352h49.076l16.358 63.090h-49.076l-16.358-63.090zM857.692 830.101h-691.825c-54.585 0-98.833-44.249-98.833-98.833v-543.582c0-54.575 44.247-98.833 98.833-98.833h240.020v-148.348l164.816 148.349h286.989c54.58 0 98.833 44.257 98.833 98.833l0 543.581c0 54.584-44.253 98.833-98.833 98.833v0zM649.167 500.347h-52.104l-14.375-60.98h55.702l-8.984-37.423h-55.697l-19.766-80.369h-50.306l19.766 80.369-52.106 0-19.766-80.369h-50.305l19.762 80.369h-57.491l8.984 37.423h57.491l14.374 60.98h-59.288l8.984 37.423h59.289l17.967 80.38h50.305l-17.968-80.38h52.105l19.761 80.38h50.311l-19.766-80.38h53.904l-10.783-37.423z"  horiz-adv-x="1024" />

    
    <glyph glyph-name="sousuo1" unicode="&#58890;" d="M945.186 18.227l-159.6 156.695c50.831 67.312 81.346 150.83 81.346 241.689 0 221.93-179.87 401.845-401.844 401.845-221.951 0-401.845-179.916-401.845-401.845 0-221.975 179.893-401.869 401.845-401.869 102.262 0 195.337 38.526 266.251 101.432L891.17-40.728c15.698-15.42 40.514-14.774 55.45 1.477 14.887 16.25 14.264 42.013-1.434 57.478z m-480.074 67.407c-182.778 0-330.93 148.176-330.93 330.954 0 182.756 148.152 330.931 330.93 330.931 182.757 0 330.932-148.175 330.932-330.93-0.001-182.78-148.176-330.955-330.932-330.955z"  horiz-adv-x="1024" />

    
    <glyph glyph-name="talk" unicode="&#58945;" d="M512 794.5c-247.4 0-448-173.6-448-387.7 0-108.5 51.5-206.5 134.4-276.9v-156.4l165.4 67.3c46.4-14.1 96.3-21.7 148.2-21.7 247.4 0 448 173.6 448 387.7s-200.6 387.7-448 387.7zM512 86.1c-44.2 0-87.6 6.3-128.8 18.8l-22.7 6.9-22-9-73.1-29.8v87.8l-23.7 20.2c-35.1 29.8-62.6 64.4-81.6 102.8-19.3 39-29.1 80.4-29.1 123 0 176.8 170.9 320.7 381 320.7s381-143.9 381-320.7-170.9-320.7-381-320.7zM306.5 451.5c-37.8 0-68.5-30.7-68.5-68.5s30.7-68.5 68.5-68.5 68.5 30.7 68.5 68.5-30.7 68.5-68.5 68.5zM512.5 451.5c-37.8 0-68.5-30.7-68.5-68.5s30.7-68.5 68.5-68.5 68.5 30.7 68.5 68.5-30.7 68.5-68.5 68.5zM717.5 451.5c-37.8 0-68.5-30.7-68.5-68.5s30.7-68.5 68.5-68.5 68.5 30.7 68.5 68.5-30.7 68.5-68.5 68.5z"  horiz-adv-x="1024" />

    
    <glyph glyph-name="xingmachaotong" unicode="&#59127;" d="M373.494483 446.267159c-17.736966-5.970992-27.037796-25.886577-20.777209-44.48619s25.715685-28.840862 43.451628-22.870894c17.73185 5.970992 27.033703 25.888624 20.767999 44.488237C410.68143 442.000995 391.227356 452.233034 373.494483 446.267159zM800.342104 459.44018c-0.044002 0-0.096191 0-0.140193 0 0.096191 0 0.158612 5.010107 0.166799 7.980765 0.088004 79.355349-32.617885 155.548682-89.864704 210.538087 9.103332 10.526751 15.403828 23.536043 18.769482 39.186488 13.699 63.85533-54.884005 106.228393-57.809637 108.012016l-6.581905 3.941775-0.254803-8.772804c-1.810229-55.982012-105.312534-63.1032-149.721976-63.1032l-4.15667 0c-18.074657 0-30.104645-0.300852-30.605042-0.354064l-6.54609-0.563842c-147.051147-17.319457-257.204943-140.373051-257.362532-289.401226-0.00921-2.978844 0.044002-5.817496 0.140193-8.769734-42.572608-0.923022-76.965929-35.776831-77.008908-78.56024-0.044002-43.416835 35.235502-78.742389 78.722946-78.786391 7.890714 0 15.737426 1.6465 23.390733 4.045129 38.504966-96.349395 144.9503-160.571069 266.465864-160.571069l0.369414 0c121.691573 0 226.922243 64.079434 265.400602 160.53423 8.145517-2.77623 14.775518-4.034896 23.985274-4.044106l0-0.282433c45.025473 0 79.969333 36.033681 80.013335 79.397305C877.757265 423.283702 843.758939 459.44018 800.342104 459.44018zM831.359538 370.957963c-4.771677-16.545838-15.992229-20.992103-31.361265-22.582321-6.599302-0.676405-14.226003-1.019213-22.652929-1.019213-14.894222 0-27.28339 1.089821-27.406187 1.098008l-3.26844 0.289596-1.274016-3.013637c-42.898019-100.989065-133.588531-157.639297-247.494791-154.396439-173.727717 4.903683-227.900523 160.863734-228.427526 162.436556l-1.889023 5.632277-4.91187-3.329838c-7.794523-5.298679-16.229636-8.365528-36.290531-8.365528-10.70276 0-31.852452 6.195096-35.297924 29.639041-3.136433 21.300119 15.930831 34.55091 29.515221 38.250162 14.963807 4.076852 30.218232 6.862291 30.367635 6.888897l3.647063 0.659009 0.053212 3.708462c3.725858 270.701328 216.582757 291.737434 281.729499 291.737434 4.103458 0 7.881504-0.078795 11.291161-0.210801 76.244498-2.768043 122.007775 27.942399 135.530766 38.618553 22.099321-39.954991-26.474978-79.320557-28.628014-81.033571l-4.402263-3.505847 4.384867-3.523243c120.707153-96.964402 107.24556-239.569284 107.096157-240.992703l-0.49221-4.701069 4.710278-0.264013c28.215622-1.572822 37.581943-6.072299 48.424896-11.282974C825.982064 406.097274 837.441047 392.064676 831.359538 370.957963zM645.233444 128.858042c-8.637728 3.944845-18.707061 3.831258-27.055193-0.333598l-105.567337-52.730968-105.558128 52.730968c-8.329712 4.164856-19.129686 4.024663-26.386974 0.580215-13.409404-3.708462-22.934339-15.913435-23.162536-29.673833L355.402429-15.697261c0-37.898145 20.333094-42.757826 38.047548-42.757826 1.291412 0 2.583848 0.026606 3.734044 0.070608 19.379373 0 99.767238 60.60838 115.425869 72.554456 15.957437-12.170181 96.077196-72.554456 115.285676-72.554456 1.300622-0.044002 2.592035-0.070608 3.883447-0.070608 8.118911 0 18.452257 0.896416 26.361391 7.829316 7.864108 6.898107 11.68718 18.321274 11.68718 35.007305l-2.099824 115.048269C667.491377 113.199411 657.965419 125.396197 645.233444 128.858042zM467.270263 36.277484l-63.016219-40.437991c-2.90005-1.860371-6.704702 0.237407-6.682189 3.681856l0.500397 76.002998c0.021489 3.679809 3.993964 5.975085 7.196912 4.160763l61.772902-35.033911C470.239897 42.83483 470.367811 38.265768 467.270263 36.277484zM621.900016-4.768351l-64.571644 42.283012c-2.76395 1.808182-2.614547 5.898337 0.268106 7.505951l63.61383 35.438117c2.64934 1.476631 5.913687-0.430812 5.922896-3.466961l0.333598-78.736249C627.474988-4.609739 624.293529-6.337079 621.900016-4.768351zM624.204501 446.267159c-17.736966-5.970992-27.037796-25.886577-20.777209-44.48619s25.715685-28.840862 43.451628-22.870894c17.73185 5.970992 27.033703 25.888624 20.767999 44.488237C661.391449 442.000995 641.937374 452.233034 624.204501 446.267159z"  horiz-adv-x="1024" />

    
    <glyph glyph-name="yanjing" unicode="&#58899;" d="M405.335167 323.392644c0-60.148915 49.674353-109.028159 110.818945-109.028159 61.142545 0 110.818945 48.879244 110.818944 109.028159v0.906649c-11.833513-11.809977-28.065196-19.077497-46.174645-19.077497-35.661198 0-64.644299 28.526707-64.644299 63.60155 0 25.25929 15.131629 47.246047 36.758181 57.415664-11.45182 4.002151-23.824615 6.183839-36.758181 6.183839-61.144592 0.002047-110.818945-48.880267-110.818945-109.030205z m529.349133 61.96119C865.963149 471.313601 698.635189 614.140541 516.33626 614.140541c-182.480055 0-349.990163-142.826939-418.71029-228.786707-15.511275-19.617803-24.006763-40.888246-24.564466-61.962214 0.557702-21.080108 9.05319-42.340317 24.564466-61.969376 68.721151-85.948511 236.050134-228.774427 418.529165-228.774427s349.809037 142.825916 418.530188 228.774427c15.692401 19.629059 24.185842 40.889269 24.745591 61.969376-0.560772 21.073968-9.055237 42.34441-24.746614 61.962214zM516.155135 141.674952c-101.94381 0-184.697559 81.412195-184.697559 181.716668 0 100.30959 82.753749 181.716668 184.697559 181.716669s184.696536-81.406055 184.696536-181.716669c0-100.304474-82.752726-181.716668-184.696536-181.716668zM85.981768 361.790162c-9.360182-14.915711-6.240121-34.805714 6.241145-46.407959 14.040784-11.604292 32.764218-8.287757 43.685965 6.628977 1.559519 1.657756 174.738743 218.785935 380.683209 218.785936 199.701275 0 380.681162-218.785935 382.244774-220.442668 10.920724-13.258978 31.200606-14.915711 43.682895-3.315512 12.482289 11.604292 14.042831 33.150004 3.122107 46.411029-3.122107 4.969175-40.565904 49.722448-99.851149 99.447966l79.56922 87.844697c12.482289 13.260002 10.92277 34.806737-1.559519 46.410007-3.121084 6.628978-10.92277 9.94449-18.723433 9.944489s-15.601326-3.315512-21.842471-9.944489l-85.809341-94.474699c-40.562834 29.834492-88.928379 58.011228-141.975549 77.899185l32.764218 117.680213c4.679579 18.2302-4.680603 36.46347-21.841447 41.435714h-9.362229c-14.039761 0-26.523073-9.945513-29.641087-24.861224l-32.764218-117.680213c-24.964578 4.971222-51.486628 8.286734-78.008678 8.286734-26.524097 0-53.04717-3.315512-78.009702-8.286734l-32.765241 116.021434c-3.120061 14.917758-17.161868 24.861224-29.64211 24.861224-3.121084 0-6.242168 0-7.801687-1.657756-17.162892-4.974291-26.523073-23.204491-21.843494-41.435715l32.763195-116.024503c-53.046147-19.888979-101.410668-48.064692-141.974526-77.899185l-84.249822 92.817966c-6.239098 6.630001-14.039761 9.945513-21.841448 9.945513-7.800663 0-15.601326-3.315512-21.842471-9.945513-12.483312-13.260002-12.483312-33.147958-1.559518-46.40796l79.56922-87.846743c-63.970964-49.721425-101.416807-97.79021-101.416808-97.790211z"  horiz-adv-x="1024" />

    
    <glyph glyph-name="ellipsis" unicode="&#58965;" d="M155.139 385.993c0-0 0-0 0-0 0-42.556 34.499-77.055 77.055-77.055 42.556 0 77.055 34.499 77.055 77.055 0 0 0 0 0 0 0 42.556-34.499 77.055-77.055 77.055-42.556 0-77.055-34.499-77.055-77.055zM512.756 308.936c-42.559 0-77.058 34.5-77.058 77.057 0.002 42.557 34.502 77.056 77.060 77.056 14.185 0 27.474-3.833 38.89-10.519 22.831-13.376 38.163-38.166 38.163-66.538 0.001-42.557-34.499-77.057-77.055-77.057zM715.322 385.993c0-42.556 34.499-77.055 77.055-77.055s77.055 34.499 77.055 77.055c0 42.556-34.499 77.055-77.055 77.055-42.556 0-77.055-34.499-77.055-77.055z"  horiz-adv-x="1024" />

    
    <glyph glyph-name="mingxingqianming" unicode="&#58910;" d="M725.246177 883.263647c-275.168176 0-498.204005-223.042709-498.204005-498.204004 0-126.735654 47.728639-242.126596 125.686332-330.056283 13.252412-18.987555 30.497406-35.28644 49.72579-49.03599 86.992178-74.130251 199.582637-119.111732 322.791883-119.111732 275.164736 0 498.200564 223.04959 498.200564 498.204005 0 275.161296-223.035829 498.204005-498.200564 498.204004z m-0.015482-956.934605c-113.424755 0-217.113184 41.42583-297.202204 109.686762-17.709448 12.667545-33.574842 27.662518-45.776213 45.148341-71.789061 80.957721-115.734982 187.198925-115.734982 303.895498 0 253.361215 205.369386 458.722 458.715119 458.721999 253.371536 0 458.740922-205.360785 458.740922-458.721999-0.00172-253.345733-205.371106-458.730601-458.742642-458.730601zM487.00723 78.222604l16.539713 151.754227-1.689236 1.231662 335.703696 460.688188 125.913399-91.743368L627.755624 139.456525l-1.659992 1.209299zM519.419218 98.710173l-23.368902 17.002446-3.153125-28.906222z"  horiz-adv-x="1448" />

    
    <glyph glyph-name="fenlei" unicode="&#58907;" d="M387.2 896h-291.2c-54.4 0-96-41.6-96-96v-291.2c0-54.4 41.6-96 96-96h384v384c3.2 57.6-41.6 99.2-92.8 99.2zM928 896h-291.2c-54.4 0-96-41.6-96-96v-384h384c54.4 0 96 41.6 96 96v291.2c3.2 51.2-38.4 92.8-92.8 92.8zM928 355.2h-384v-384c0-54.4 41.6-96 96-96h291.2c54.4 0 96 41.6 96 96v291.2c-3.2 48-44.8 92.8-99.2 92.8zM297.6 355.2h-201.6c-54.4 0-96-41.6-96-96v-291.2c0-54.4 41.6-96 96-96h291.2c54.4 0 96 41.6 96 96v384h-185.6z"  horiz-adv-x="1027" />

    
    <glyph glyph-name="you" unicode="&#59095;" d="M691.2 403.911111c0 2.844444-2.844444 2.844444 0 0L403.911111 705.422222c-14.222222 17.066667-39.822222 17.066667-56.888889 0-17.066667-14.222222-17.066667-39.822222 0-56.888889l258.844445-270.222222-270.222223-258.844444c-17.066667-14.222222-17.066667-39.822222 0-56.888889 14.222222-17.066667 39.822222-17.066667 56.888889 0l298.666667 284.444444c2.844444 2.844444 5.688889 8.533333 8.533333 14.222222 5.688889 14.222222 2.844444 31.288889-8.533333 42.666667z"  horiz-adv-x="1024" />

    
    <glyph glyph-name="huojian" unicode="&#58921;" d="M557.885467-21.720721c0-41.624629-46.060041-106.279279-46.06004-106.279279S465.799505-59.046413 465.799505-21.720721c0 31.559657 20.061707 57.387399 46.025922 57.387399 25.86186 0 46.060041-25.827741 46.06004-57.387399m16.411022 495.230733c37.359811 34.459734 40.225769 93.348349 5.697798 130.674042-34.459734 37.325692-93.382468 40.225769-130.776397 5.800153-37.359811-34.459734-40.225769-93.416586-5.697798-130.674041 34.459734-37.393929 93.416586-40.259887 130.776397-5.800154M835.985757 126.149069v-17.229867l-199.832339 40.259887c-12.862693-43.125845-64.688768-76.084363-124.976244-76.084363-60.389831 0-112.215906 33.026755-125.078599 77.517342L187.733333 111.853397v17.195748c0 97.647286 27.328957 167.965615 89.083531 226.888349C255.219823 634.378969 380.264303 810.90834 503.875805 882.727885l7.233132 4.264818 7.164895-4.264818c123.679739-71.819545 247.223003-248.383034 227.161297-526.892747C808.690918 296.980642 835.985757 226.594076 835.985757 126.149069"  horiz-adv-x="1024" />

    
    <glyph glyph-name="caidan" unicode="&#58882;" d="M108.065 613.811h807.686c21.101 0 38.348 17.247 38.348 38.348s-17.063 38.348-38.348 38.348H108.065c-21.101 0-38.348-17.247-38.348-38.348s17.247-38.348 38.348-38.348zM915.751 422.256H108.065c-21.101 0-38.348-17.247-38.348-38.348s17.247-38.348 38.348-38.348h807.686c21.101 0 38.348 17.247 38.348 38.348s-17.247 38.348-38.348 38.348zM915.751 154.189H108.065c-21.101 0-38.348-17.063-38.348-38.348s17.247-38.348 38.348-38.348h807.686c21.101 0 38.348 17.063 38.348 38.348s-17.247 38.348-38.348 38.348z"  horiz-adv-x="1024" />

    
    <glyph glyph-name="wode-fuben_fuzhi" unicode="&#58946;" d="M807.318 248.382c-47.806 44.616-105.862 76.926-169.69 95.236 20.847 11.619 40.213 26.194 57.553 43.535C744.288 436.26 771.333 501.552 771.333 571s-27.045 134.74-76.152 183.848S580.782 831 511.333 831c-69.449 0-134.74-27.045-183.848-76.152S251.333 640.449 251.333 571s27.045-134.74 76.152-183.848c17.341-17.341 36.706-31.915 57.553-43.535-63.828-18.31-121.885-50.62-169.69-95.236C135.701 174.047 91.836 71.854 91.836-39.37c0-14.359 11.641-26 26-26H904.83c14.359 0 26 11.641 26 26 0 111.224-43.864 213.417-123.512 287.752z"  horiz-adv-x="1024" />

    
    <glyph glyph-name="new" unicode="&#58891;" d="M846.96 608.72H177.04A64 64 0 0 1 112 544v-320a64 64 0 0 1 65.04-65.04h670A64 64 0 0 1 912 224V544a64 64 0 0 1-65.04 64.72zM344 278h-45.44l-88 172.4v-172.4h-27.92V484.32h39.6l90.48-178.08h2.8V484.32H344z m70.64 118.72h110.08v-28.24H414.48v-5.68c0-36.72 11.28-53.68 33.92-53.68h79.12v-28.32H448a50.88 50.88 0 0 0-42.4 19.76c-11.28 14.16-16.96 36.72-16.96 62.16v48c0 48 31.12 67.84 62.16 73.52h76.32V456h-73.04a43.76 43.76 0 0 1-36.72-45.2 25.52 25.52 0 0 1-2.88-14.08z m367.36-118.72H742.4l-39.6 163.92-45.2-163.92h-42.4l-59.36 206.4h31.12l50.88-169.6h2.8l45.2 169.6H720l45.2-178.08 53.68 178.08h28.24z"  horiz-adv-x="1024" />

    
    <glyph glyph-name="shouye" unicode="&#58938;" d="M1015.85664 368.64L529.45664 849.92c-10.24 10.24-25.6 10.24-35.84 0L7.21664 368.64c-15.36-15.36-5.12-46.08 20.48-46.08h107.52v-389.12c0-15.36 10.24-25.6 25.6-25.6h235.52v209.92c0 61.44 51.2 112.64 112.64 112.64s112.64-51.2 112.64-112.64v-209.92h235.52c15.36 0 25.6 10.24 25.6 25.6v389.12h107.52c30.72 0 46.08 30.72 25.6 46.08z"  horiz-adv-x="1026" />

    
    <glyph glyph-name="icon-nvhai" unicode="&#59013;" d="M551.866667 134.933333c-9.6 6.133333-12.266667 18.533333-6.4 28.533334 5.866667 9.066667 18.533333 12.266667 28.4 6.4 15.6-10 32.8-17.6 50.666666-22.933334 17.333333-5.066667 36-7.866667 55.066667-7.866666 19.6 0 37.6 2.666667 55.2 7.866666 17.6 5.333333 34.666667 12.933333 50.8 22.933334 9.333333 5.866667 22 2.666667 28.133333-6.4 5.866667-10 3.2-22.533333-6.4-28.533334-19.066667-12-39.333333-21.466667-61.333333-27.866666-21.466667-6.4-43.733333-9.333333-66.533333-9.333334-22.533333 0-44.933333 2.933333-66.533334 9.333334-21.466667 6.266667-42 15.866667-61.066666 27.866666m442.666666 566.666667c78.933333-70.933333 102.4-154.933333 111.466667-237.2 9.066667-79.2-2.666667-160.666667-16.4-252.266667-7.6-49.6-14.133333-98.8-14.666667-142.266666 0-41.866667 4.933333-80.933333 21.066667-114.933334 8.266667-17.066667 0.933333-37.333333-16.133333-45.466666-3.733333-2-6.8-2.666667-10.266667-3.2-31.733333-5.066667-60.133333-4.666667-85.866667 0-28.133333 5.333333-52.8 16.666667-72.4 32.533333-23.466667 18.4-39.866667 44-47.2 72.666667l-3.466666-1.466667c-55.066667-31.6-117.6-47.733333-180.933334-47.733333-64 0-127.6 17.066667-183.333333 49.2h-0.533333c-24.666667-92.933333-122.266667-118.8-206.533334-104.666667-18.8 3.2-31.466667 20.8-28.666666 39.066667 0.8 3.2 2 6.4 2.933333 9.066666 15.866667 34 21.333333 73.066667 21.333333 114.933334-0.533333 43.466667-7.066667 92.666667-14.4 142.266666-14.133333 92.133333-23.466667 173.866667-12.666666 253.333334 10.8 81.6 43.2 158.4 114.4 236.133333l2 1.733333 9.733333 10.533334c46.666667 37.333333 141.333333 97.733333 297.333333 97.733333 200 0 296.666667-95.066667 313.2-110z m-569.733333-44.8l-1.466667-1.733333c-60.666667-66.533333-88-131.066667-97.6-198.8-9.6-70.4-0.266667-147.2 12.666667-233.733334 8.133333-51.6 14.933333-102.933333 15.466667-152.533333 0-34.266667-2.933333-67.2-11.2-98.533333 61.066667 2.933333 120.8 62.4 79.2 124.666666-82.666667 124.933333-24.666667 314.933333-18.8 333.466667 0.266667 1.466667 0.8 2.666667 1.733333 3.866667 4.133333 10.533333 16.666667 14.666667 26.933333 10.266666 7.333333-3.2 14.133333-5.866667 20.533334-8.8 58.133333-22 109.333333-21.066667 151.6-2.4 42 18.8 76.266667 55.733333 100.266666 106.8v0.933334c3.2 6.133333 5.866667 12.933333 8.266667 20.266666h0.266667l0.533333 1.733334c2.666667 7.066667 10 28.8 10.533333 53.6 0.266667 11.466667 9.733333 20 21.066667 20 11.2 0 20.266667-9.466667 20-20.8-0.533333-27.6-6.8-51.066667-10.8-61.866667 18.8-47.866667 40.8-86.533333 70.4-116.8 30.8-31.066667 70.933333-53.733333 126.133333-68.266667 7.333333-2.266667 13.2-8.533333 14.666667-16.133333 14.133333-75.733333 18.8-154-16.4-224-31.066667-62.8-34.533333-139.066667 48.133333-154.266667 6.4-1.466667 13.2-2.4 20.533334-2.4-8.266667 31.333333-11.2 64.266667-11.066667 98.533334 0.266667 49.6 7.6 100.933333 14.933333 152.533333 13.2 86.8 24.4 164 16.666667 234.4-7.6 67.466667-31.6 133.6-93.866667 198C890.4 710.666667 801.866667 746.666667 681.333333 746.666667c-143.6 0-219.866667-50.533333-256.533333-89.866667z m502.133333-324.4c-56 16.133333-98.266667 41.333333-132 75.733333-25.866667 25.866667-46.4 56.666667-63.866666 94.4-27.2-50.133333-64.8-87.333333-110.8-107.6-51.866667-23.466667-113.866667-24.4-182.666667 1.466667l-1.466667 0.533333c-23.733333-91.2-32.533333-194.133333 21.733334-266 49.6-65.066667 141.333333-100.266667 222-100.266666 201.6 0.133333 274.666667 135.466667 247.066666 301.733333m-363.333333-10c19.066667 0 34.666667-15.466667 34.666667-34.533333 0-19.066667-15.6-34.666667-34.666667-34.666667-18.533333 0-34.266667 15.6-34.266667 34.666667s15.733333 34.533333 34.266667 34.533333m231.733333 0c19.066667 0 34.4-15.466667 34.4-34.533333 0-19.066667-15.333333-34.666667-34.4-34.666667s-34.533333 15.6-34.533333 34.666667c0.133333 19.066667 15.466667 34.533333 34.533333 34.533333m0 0"  horiz-adv-x="1365" />

    


  </font>
</defs>
</svg>
